<svg xmlns="http://www.w3.org/2000/svg" id="Calque_1" data-name="Calque 1" viewBox="0 0 426.68 217.88"><defs><style>      .cls-1 {        fill: #fff;      }      .cls-2 {        fill: #e65317;      }      .cls-3 {        fill: none;        stroke: #000;        stroke-linejoin: bevel;        stroke-width: 1.88px;      }    </style></defs><path class="cls-2" d="M317.94.94H108.84C49.24.94.94,49.34.94,108.94s48.3,108,107.9,108h209.1c59.5,0,107.8-48.4,107.8-108S377.44.94,317.94.94ZM319.74,141.54H106.84c-17.9,0-32.5-14.5-32.5-32.5s14.5-32.6,32.5-32.6h212.9c17.9,0,32.5,14.6,32.5,32.6s-14.5,32.5-32.5,32.5Z"></path><path class="cls-3" d="M317.94.94H108.84C49.24.94.94,49.34.94,108.94s48.3,108,107.9,108h209.1c59.5,0,107.8-48.4,107.8-108S377.44.94,317.94.94ZM319.74,141.54H106.84c-17.9,0-32.5-14.5-32.5-32.5s14.5-32.6,32.5-32.6h212.9c17.9,0,32.5,14.6,32.5,32.6s-14.5,32.5-32.5,32.5Z"></path><g><path class="cls-1" d="M352.24,109.04c0,17.9-14.5,32.5-32.5,32.5H106.84c-17.9,0-32.5-14.5-32.5-32.5s14.5-32.6,32.5-32.6h212.9c17.9,0,32.5,14.6,32.5,32.6Z"></path><path d="M319.74,142.47H106.84c-18.44,0-33.44-15-33.44-33.44s15-33.54,33.44-33.54h212.9c18.44,0,33.44,15.04,33.44,33.54s-15,33.44-33.44,33.44ZM106.84,77.38c-17.4,0-31.56,14.2-31.56,31.66s14.16,31.56,31.56,31.56h212.9c17.4,0,31.56-14.16,31.56-31.56s-14.16-31.66-31.56-31.66H106.84Z"></path></g><path d="M163.36,116.14c0,1.4-.26,2.7-.78,3.8-.52,1.2-1.17,2.2-2.08,3-.91.8-1.95,1.5-3.24,1.9-1.3.5-2.6.7-4.15.7-2.6,0-4.67-.6-6.36-1.7-2.08-1-3.5-2.7-4.54-4.9l5.84-3.6c.65,1.2,1.43,2.1,2.21,2.7.78.6,1.56.9,2.6.9.91,0,1.56-.2,2.08-.7.52-.5.78-1,.78-1.7,0-.4,0-.7-.13-1-.13-.3-.26-.6-.52-.9-.26-.3-.65-.6-1.04-1-.39-.4-.91-.8-1.56-1.3-1.3-1.1-2.6-2-3.63-2.9-1.04-.9-1.95-1.8-2.73-2.7-.78-.9-1.3-1.8-1.69-2.8-.39-.9-.52-2-.52-3.1,0-1.3.26-2.5.78-3.5.52-1,1.17-1.9,2.08-2.7.91-.8,1.82-1.3,2.98-1.7,1.17-.4,2.34-.6,3.76-.6,2.08,0,3.76.4,5.32,1.3,1.56.9,2.86,2,4.15,3.5l-4.93,4.4c-.65-.8-1.3-1.4-2.08-1.9-.65-.5-1.43-.8-2.34-.8-.78,0-1.3.2-1.69.5-.39.3-.65.8-.65,1.4,0,.3.13.6.26.9.13.3.39.6.78,1,.39.3.78.7,1.43,1.2.52.5,1.3,1,2.08,1.6,1.3.9,2.47,1.8,3.37,2.6.91.8,1.69,1.7,2.34,2.5s1.04,1.7,1.43,2.6c.26.9.39,1.9.39,3Z"></path><rect x="167.77" y="93.14" width="7.53" height="31.7"></rect><path d="M210.99,119.54c-1.82,1.9-3.76,3.4-5.97,4.4s-4.8,1.6-7.92,1.6c-2.47,0-4.67-.4-6.75-1.2-2.08-.8-3.76-1.9-5.19-3.4-1.43-1.5-2.6-3.2-3.37-5.3-.91-1.9-1.3-4.2-1.3-6.7s.39-4.7,1.3-6.7,2.08-3.8,3.5-5.3c1.56-1.5,3.24-2.6,5.32-3.4,2.08-.8,4.28-1.2,6.75-1.2,2.86,0,5.45.6,7.79,1.7,2.21,1.1,4.15,2.6,5.71,4.3l-5.19,5c-2.34-2.5-5.06-3.8-8.31-3.8-1.3,0-2.6.2-3.63.7-1.17.5-2.08,1.1-2.98,2-.78.8-1.43,1.8-1.95,3-.52,1.1-.65,2.4-.65,3.7,0,1.4.26,2.7.65,3.8.52,1.1,1.04,2.1,1.95,3,.78.8,1.82,1.5,2.98,2s2.47.7,3.76.7c.91,0,1.69-.1,2.47-.3.78-.2,1.43-.4,2.21-.8.65-.4,1.3-.8,1.95-1.3s1.3-1.1,1.95-1.7l4.93,5.2Z"></path><path d="M252,124.84h-7.14l-2.34-17c0-.4-.13-1-.26-1.5-.13-.5-.13-1.2-.26-1.7-.13.6-.26,1.2-.39,1.7-.13.6-.26,1.1-.39,1.5l-5.19,17.1h-7.01l-4.93-17.1c-.13-.4-.26-1-.39-1.5-.13-.6-.26-1.2-.39-1.8,0,.6-.13,1.2-.13,1.8s-.13,1.1-.13,1.5l-2.34,17.1h-7.14v-.1l4.54-31.7h8.69l5.32,19c.13.4.13.8.26,1.3.13.5.26.9.39,1.4.13-1,.39-1.9.65-2.7l5.71-19h8.44l4.41,31.7Z"></path><path d="M273.15,93.14h-8.69l-11.29,31.7h7.79l1.95-5.9h11.81l1.95,5.9h7.92l-11.42-31.7ZM265.1,112.04l3.63-11,3.63,11h-7.27Z"></path></svg>